<svg xmlns="http://www.w3.org/2000/svg" xmlns:xlink="http://www.w3.org/1999/xlink" width="500" zoomAndPan="magnify" viewBox="0 0 375 374.999991" height="500" preserveAspectRatio="xMidYMid meet" version="1.0"><defs><g/><clipPath id="id1"><path d="M 229.640625 138 L 337.640625 138 L 337.640625 237.4375 L 229.640625 237.4375 Z M 229.640625 138 " clip-rule="nonzero"/></clipPath><clipPath id="id2"><path d="M 235.785156 149.035156 L 331.035156 149.035156 L 331.035156 237.535156 L 235.785156 237.535156 Z M 235.785156 149.035156 " clip-rule="nonzero"/></clipPath><clipPath id="id3"><path d="M 252.40625 162 L 296 162 L 296 207 L 252.40625 207 Z M 252.40625 162 " clip-rule="nonzero"/></clipPath><clipPath id="id4"><path d="M 270.71875 161.851562 L 314.65625 161.851562 L 314.65625 224.851562 L 270.71875 224.851562 Z M 270.71875 161.851562 " clip-rule="nonzero"/></clipPath></defs><rect x="-37.5" width="450" fill="rgb(100%, 100%, 100%)" y="-37.499999" height="449.999989" fill-opacity="1"/><rect x="-37.5" width="450" fill="rgb(100%, 100%, 100%)" y="-37.499999" height="449.999989" fill-opacity="1"/><rect x="-37.5" width="450" fill="rgb(100%, 100%, 100%)" y="-37.499999" height="449.999989" fill-opacity="1"/><g clip-path="url(#id1)"><path fill="rgb(100%, 83.529663%, 11.759949%)" d="M 283.640625 237.101562 L 275.8125 230.003906 C 248 204.761719 229.640625 188.105469 229.640625 167.722656 C 229.640625 151.0625 242.683594 138.023438 259.339844 138.023438 C 268.738281 138.023438 277.753906 142.398438 283.640625 149.28125 C 289.527344 142.398438 298.546875 138.023438 307.941406 138.023438 C 324.601562 138.023438 337.640625 151.0625 337.640625 167.722656 C 337.640625 188.105469 319.28125 204.761719 291.472656 230.003906 Z M 283.640625 237.101562 " fill-opacity="1" fill-rule="nonzero"/></g><g fill="rgb(10.978699%, 11.369324%, 26.269531%)" fill-opacity="1"><g transform="translate(41.38842, 194.216192)"><g><path d="M 3.964844 -2.632812 L 3.964844 -10.3125 L 4.824219 -10.3125 C 7.035156 -10.3125 8.523438 -8.636719 8.523438 -6.480469 C 8.523438 -4.328125 7.015625 -2.632812 4.824219 -2.632812 Z M 1.144531 -12.964844 L 1.144531 0 L 4.996094 0 C 8.675781 0 11.4375 -2.820312 11.4375 -6.480469 C 11.4375 -10.144531 8.65625 -12.964844 4.996094 -12.964844 Z M 1.144531 -12.964844 "/></g></g></g><g fill="rgb(10.978699%, 11.369324%, 26.269531%)" fill-opacity="1"><g transform="translate(58.08966, 194.216192)"><g><path d="M 11.152344 -6.5 C 11.152344 -4.5 9.34375 -2.667969 7.339844 -2.667969 C 5.339844 -2.667969 3.527344 -4.5 3.527344 -6.5 C 3.527344 -8.503906 5.339844 -10.3125 7.339844 -10.3125 C 9.34375 -10.3125 11.152344 -8.503906 11.152344 -6.5 Z M 14.011719 -6.480469 C 14.011719 -10.066406 10.925781 -13.15625 7.339844 -13.15625 C 3.757812 -13.15625 0.667969 -10.066406 0.667969 -6.480469 C 0.667969 -2.898438 3.757812 0.191406 7.339844 0.191406 C 10.925781 0.191406 14.011719 -2.898438 14.011719 -6.480469 Z M 14.011719 -6.480469 "/></g></g></g><g fill="rgb(10.978699%, 11.369324%, 26.269531%)" fill-opacity="1"><g transform="translate(77.364719, 194.216192)"><g><path d="M 10.503906 -4.402344 C 9.972656 -3.261719 8.675781 -2.476562 7.339844 -2.476562 C 5.242188 -2.476562 3.566406 -4.269531 3.566406 -6.480469 C 3.566406 -8.675781 5.242188 -10.484375 7.339844 -10.484375 C 8.65625 -10.484375 9.953125 -9.761719 10.484375 -8.597656 L 13.667969 -8.597656 C 12.792969 -11.25 10.296875 -13.15625 7.339844 -13.15625 C 3.660156 -13.15625 0.667969 -10.160156 0.667969 -6.480469 C 0.667969 -2.800781 3.660156 0.191406 7.339844 0.191406 C 10.296875 0.191406 12.8125 -1.734375 13.6875 -4.402344 Z M 10.503906 -4.402344 "/></g></g></g><g fill="rgb(10.978699%, 11.369324%, 26.269531%)" fill-opacity="1"><g transform="translate(96.125017, 194.216192)"><g><path d="M 6.652344 -10.371094 L 10.351562 -10.371094 L 10.351562 -12.964844 L 0.09375 -12.964844 L 0.09375 -10.371094 L 3.792969 -10.371094 L 3.792969 0 L 6.652344 0 Z M 6.652344 -10.371094 "/></g></g></g><g fill="rgb(10.978699%, 11.369324%, 26.269531%)" fill-opacity="1"><g transform="translate(111.167577, 194.216192)"><g><path d="M 11.152344 -6.5 C 11.152344 -4.5 9.34375 -2.667969 7.339844 -2.667969 C 5.339844 -2.667969 3.527344 -4.5 3.527344 -6.5 C 3.527344 -8.503906 5.339844 -10.3125 7.339844 -10.3125 C 9.34375 -10.3125 11.152344 -8.503906 11.152344 -6.5 Z M 14.011719 -6.480469 C 14.011719 -10.066406 10.925781 -13.15625 7.339844 -13.15625 C 3.757812 -13.15625 0.667969 -10.066406 0.667969 -6.480469 C 0.667969 -2.898438 3.757812 0.191406 7.339844 0.191406 C 10.925781 0.191406 14.011719 -2.898438 14.011719 -6.480469 Z M 14.011719 -6.480469 "/></g></g></g><g fill="rgb(10.978699%, 11.369324%, 26.269531%)" fill-opacity="1"><g transform="translate(130.442638, 194.216192)"><g><path d="M 4.003906 -4.632812 L 4.023438 -4.632812 L 7.113281 0 L 10.734375 0 L 7.015625 -4.765625 C 8.65625 -5.167969 9.972656 -6.617188 9.972656 -8.808594 C 9.972656 -11.269531 8.101562 -12.964844 6.003906 -12.964844 L 1.144531 -12.964844 L 1.144531 0 L 4.003906 0 Z M 5.527344 -10.714844 C 6.367188 -10.714844 7.246094 -9.992188 7.246094 -8.808594 C 7.246094 -7.570312 6.367188 -6.882812 5.527344 -6.882812 L 4.003906 -6.882812 L 4.003906 -10.714844 Z M 5.527344 -10.714844 "/></g></g></g><g fill="rgb(10.978699%, 11.369324%, 26.269531%)" fill-opacity="1"><g transform="translate(145.542395, 194.216192)"><g><path d="M 10.503906 -4.402344 C 9.972656 -3.261719 8.675781 -2.476562 7.339844 -2.476562 C 5.242188 -2.476562 3.566406 -4.269531 3.566406 -6.480469 C 3.566406 -8.675781 5.242188 -10.484375 7.339844 -10.484375 C 8.65625 -10.484375 9.953125 -9.761719 10.484375 -8.597656 L 13.667969 -8.597656 C 12.792969 -11.25 10.296875 -13.15625 7.339844 -13.15625 C 3.660156 -13.15625 0.667969 -10.160156 0.667969 -6.480469 C 0.667969 -2.800781 3.660156 0.191406 7.339844 0.191406 C 10.296875 0.191406 12.8125 -1.734375 13.6875 -4.402344 Z M 10.503906 -4.402344 "/></g></g></g><g fill="rgb(10.978699%, 11.369324%, 26.269531%)" fill-opacity="1"><g transform="translate(164.302696, 194.216192)"><g><path d="M 8.199219 -4.957031 L 4.917969 -4.957031 L 6.558594 -9.570312 Z M 13.039062 0 L 7.777344 -12.964844 L 5.355469 -12.964844 L 0.09375 0 L 3.164062 0 L 4.097656 -2.613281 L 9.035156 -2.613281 L 9.972656 0 Z M 13.039062 0 "/></g></g></g><g fill="rgb(10.978699%, 11.369324%, 26.269531%)" fill-opacity="1"><g transform="translate(182.033457, 194.216192)"><g><path d="M 4.003906 -4.632812 L 4.023438 -4.632812 L 7.113281 0 L 10.734375 0 L 7.015625 -4.765625 C 8.65625 -5.167969 9.972656 -6.617188 9.972656 -8.808594 C 9.972656 -11.269531 8.101562 -12.964844 6.003906 -12.964844 L 1.144531 -12.964844 L 1.144531 0 L 4.003906 0 Z M 5.527344 -10.714844 C 6.367188 -10.714844 7.246094 -9.992188 7.246094 -8.808594 C 7.246094 -7.570312 6.367188 -6.882812 5.527344 -6.882812 L 4.003906 -6.882812 L 4.003906 -10.714844 Z M 5.527344 -10.714844 "/></g></g></g><g fill="rgb(10.978699%, 11.369324%, 26.269531%)" fill-opacity="1"><g transform="translate(197.133214, 194.216192)"><g><path d="M 8.65625 -2.59375 L 4.003906 -2.59375 L 4.003906 -5.203125 L 8.464844 -5.203125 L 8.464844 -7.796875 L 4.003906 -7.796875 L 4.003906 -10.371094 L 8.65625 -10.371094 L 8.65625 -12.964844 L 1.144531 -12.964844 L 1.144531 0 L 8.65625 0 Z M 8.65625 -2.59375 "/></g></g></g><g clip-path="url(#id2)"><path fill="rgb(100%, 100%, 100%)" d="M 283.410156 237.246094 L 276.503906 230.945312 C 251.976562 208.546875 235.785156 193.765625 235.785156 175.679688 C 235.785156 160.898438 247.285156 149.328125 261.976562 149.328125 C 270.265625 149.328125 278.21875 153.210938 283.410156 159.320312 C 288.601562 153.210938 296.554688 149.328125 304.839844 149.328125 C 319.53125 149.328125 331.035156 160.898438 331.035156 175.679688 C 331.035156 193.765625 314.84375 208.546875 290.316406 230.945312 Z M 283.410156 237.246094 " fill-opacity="1" fill-rule="nonzero"/></g><path fill="rgb(10.978699%, 11.369324%, 26.269531%)" d="M 311.523438 197.863281 C 311.199219 198.378906 310.859375 198.878906 310.503906 199.371094 L 310.503906 200.464844 C 310.503906 201.824219 309.410156 202.925781 308.0625 202.925781 L 307.375 202.925781 C 306.667969 203.585938 305.921875 204.203125 305.140625 204.769531 C 304.300781 205.375 303.417969 205.925781 302.5 206.410156 L 308.0625 206.410156 C 311.316406 206.410156 313.964844 203.742188 313.964844 200.464844 L 313.964844 192.886719 C 313.320312 194.625 312.5 196.296875 311.523438 197.863281 " fill-opacity="1" fill-rule="nonzero"/><g clip-path="url(#id3)"><path fill="rgb(10.978699%, 11.369324%, 26.269531%)" d="M 258.308594 202.925781 C 256.960938 202.925781 255.867188 201.824219 255.867188 200.464844 L 255.867188 187.25 C 255.867188 185.890625 256.960938 184.789062 258.308594 184.789062 L 274.179688 184.789062 L 274.179688 168.808594 C 274.179688 167.449219 275.273438 166.347656 276.621094 166.347656 L 289.75 166.347656 C 291.097656 166.347656 292.191406 167.449219 292.191406 168.808594 L 292.191406 181.433594 C 293.367188 181.078125 294.527344 180.683594 295.648438 180.210938 L 295.648438 168.808594 C 295.648438 165.53125 293.003906 162.867188 289.75 162.867188 L 276.621094 162.867188 C 273.367188 162.867188 270.722656 165.53125 270.722656 168.808594 L 270.722656 181.308594 L 258.308594 181.308594 C 255.054688 181.308594 252.40625 183.972656 252.40625 187.25 L 252.40625 200.464844 C 252.40625 203.742188 255.054688 206.410156 258.308594 206.410156 L 268.441406 206.410156 C 268.46875 205.234375 268.535156 204.070312 268.652344 202.925781 L 258.308594 202.925781 " fill-opacity="1" fill-rule="nonzero"/></g><g clip-path="url(#id4)"><path fill="rgb(11.369324%, 52.159119%, 77.249146%)" d="M 308.585938 161.851562 C 309.21875 169.625 304.933594 177.582031 298.132812 181.308594 C 298.082031 181.335938 298.03125 181.363281 297.980469 181.390625 C 296.148438 182.367188 294.191406 183.054688 292.191406 183.632812 C 287.632812 184.953125 282.851562 185.738281 278.835938 188.242188 C 273.230469 191.742188 271.472656 196.511719 270.878906 202.347656 C 270.761719 203.496094 270.75 205.234375 270.722656 206.410156 C 270.722656 206.410156 270.722656 206.578125 270.722656 206.875 L 270.722656 218.90625 C 270.722656 222.191406 273.363281 224.851562 276.621094 224.851562 L 289.75 224.851562 C 293.007812 224.851562 295.648438 222.191406 295.648438 218.90625 L 295.648438 208.777344 C 294.84375 208.945312 294.027344 209.089844 293.207031 209.214844 C 292.871094 209.265625 292.53125 209.3125 292.191406 209.355469 L 292.191406 218.90625 C 292.191406 220.265625 291.097656 221.367188 289.75 221.367188 L 276.621094 221.367188 C 275.273438 221.367188 274.179688 220.265625 274.179688 218.90625 L 274.179688 206.40625 C 274.148438 205.378906 274.117188 204.550781 274.179688 203.816406 C 274.308594 202.324219 274.714844 200.519531 276.167969 198.761719 C 279.984375 194.152344 293.023438 192.367188 297.488281 190.617188 C 300.777344 189.324219 304.621094 187.578125 306.722656 184.789062 C 307.46875 183.800781 308.078125 182.710938 308.5 181.519531 C 308.425781 182.660156 308.140625 183.757812 307.699219 184.789062 C 306.609375 187.328125 304.542969 189.488281 302.183594 190.972656 C 298.863281 193.066406 294.960938 193.941406 291.203125 195.046875 C 288.632812 195.863281 283.023438 197.542969 281.257812 198.609375 C 275.40625 202.144531 276.984375 208.136719 276.984375 208.136719 C 276.984375 208.136719 278.527344 205.59375 282.9375 205.320312 C 283.839844 205.261719 284.886719 205.257812 286.105469 205.324219 C 291.316406 205.601562 294.832031 205.507812 297.539062 205.269531 C 304.558594 204.652344 308.820312 198.710938 310.503906 196.019531 C 312.113281 193.449219 313.289062 190.59375 313.964844 187.632812 C 314.125 186.925781 314.257812 186.210938 314.363281 185.496094 C 315.546875 177.285156 313.117188 168.785156 308.585938 161.851562 " fill-opacity="1" fill-rule="nonzero"/></g></svg>